<?xml version="1.0" encoding="utf-8"?>
<!-- Generator: Adobe Illustrator 27.0.0, SVG Export Plug-In . SVG Version: 6.00 Build 0)  -->
<svg version="1.1" xmlns="http://www.w3.org/2000/svg" xmlns:xlink="http://www.w3.org/1999/xlink" x="0px" y="0px"
	 viewBox="0 0 72 72" style="enable-background:new 0 0 72 72;" xml:space="preserve">
<style type="text/css">
	.st0{fill:#2E3192;}
</style>
<g id="Layer_1">
</g>
<g id="Content">
	<path class="st0" d="M128.2,36c0,1.2-1,2.2-2.2,2.2s-2.2-1-2.2-2.2s1-2.2,2.2-2.2S128.2,34.8,128.2,36z M157.9,36.7h-5.5
		c-0.3,14-11.7,25.4-25.8,25.8v5.5h-1.3v-5.5c-14-0.3-25.4-11.7-25.8-25.8h-5.5v-1.3h5.5c0.3-14,11.7-25.4,25.8-25.8V4.1h1.3v5.5
		c14,0.3,25.4,11.7,25.8,25.8h5.5V36.7z M150.9,36.7h-14.6v-1.3h14.6c-0.3-13.2-11-23.9-24.2-24.2v14h-1.3v-14
		c-13.2,0.3-23.9,11-24.2,24.2h15.6v1.3h-15.6c0.3,13.2,11,23.9,24.2,24.2V46.4h1.3v14.5C139.9,60.5,150.5,49.9,150.9,36.7z"/>
	<path class="st0" d="M36,10.3c-14.1,0-25.7,11.5-25.7,25.7c0,14.1,11.5,25.7,25.7,25.7S61.7,50.1,61.7,36
		C61.7,21.9,50.1,10.3,36,10.3z M36,11.8v24.3L14.8,24.5C18.8,17,26.8,11.8,36,11.8z"/>
	<path class="st0" d="M223.8,59.8C210.6,59.8,200,49.1,200,36c0-13.1,10.7-23.8,23.8-23.8s23.8,10.7,23.8,23.8
		C247.6,49.1,236.9,59.8,223.8,59.8z M223.8,13.6c-12.4,0-22.4,10.1-22.4,22.4s10.1,22.4,22.4,22.4s22.4-10.1,22.4-22.4
		S236.1,13.6,223.8,13.6z M233.7,46.5l-8.9-9.1V21.2h-3.1v17.5l9.8,10L233.7,46.5z M199.5,18.2h-9v2h9V18.2z M195.2,25.6h-7.4v2h7.4
		V25.6z M194.8,33.6h-10.3v2h10.3V33.6z"/>
</g>
</svg>
